<svg width="130" height="41" viewBox="0 0 130 41" fill="none" xmlns="http://www.w3.org/2000/svg">
<path d="M46.9381 10.734C46.9381 15.578 45.4264 18 42.4029 18H39.8671V3.74107H42.4614C43.9309 3.74107 45.0427 4.33601 45.797 5.52587C46.5577 6.70924 46.9381 8.44528 46.9381 10.734ZM45.9335 10.7925C45.9335 8.78339 45.6377 7.25216 45.046 6.19883C44.4543 5.14551 43.5798 4.61884 42.4224 4.61884H40.8229V17.1222H42.3444C43.5798 17.1222 44.4868 16.5826 45.0655 15.5032C45.6442 14.4239 45.9335 12.8537 45.9335 10.7925ZM50.6797 18V3.74107H51.6355V18H50.6797ZM63.599 10.851C63.599 13.2113 63.2446 15.0253 62.5359 16.2932C61.8337 17.5611 60.8161 18.1951 59.4832 18.1951C58.1373 18.1951 57.1165 17.5579 56.4207 16.2835C55.725 15.0026 55.3772 13.1853 55.3772 10.8315C55.3772 8.37376 55.7218 6.54344 56.411 5.34057C57.1002 4.13769 58.134 3.53626 59.5125 3.53626C60.8389 3.53626 61.8499 4.1702 62.5457 5.4381C63.2479 6.69949 63.599 8.5038 63.599 10.851ZM56.372 10.851C56.372 12.9707 56.6353 14.5734 57.162 15.6593C57.6951 16.7386 58.4689 17.2783 59.4832 17.2783C60.504 17.2783 61.2778 16.7419 61.8044 15.669C62.3376 14.5962 62.6042 12.9902 62.6042 10.851C62.6042 8.73787 62.3441 7.14488 61.8239 6.07204C61.3038 4.99271 60.5333 4.45304 59.5125 4.45304C58.4656 4.45304 57.6789 4.99921 57.1522 6.09155C56.6321 7.17739 56.372 8.76388 56.372 10.851ZM74.8602 18H73.6411L68.2477 5.21378H68.1696C68.2477 6.09805 68.2867 6.94982 68.2867 7.76907V18H67.3504V3.74107H68.589L73.9434 16.381H74.0019C73.9499 15.3147 73.9239 14.4239 73.9239 13.7087V3.74107H74.8602V18ZM79.0798 18V3.74107H80.0356V18H79.0798ZM93.8096 18L90.0156 5.01872H89.9376C90.0026 6.38414 90.0351 7.24891 90.0351 7.61302V18H89.1184V3.74107H90.5326L93.7315 14.645C94.0176 15.6073 94.2029 16.4265 94.2875 17.1027H94.3655C94.4305 16.6216 94.6321 15.8088 94.9702 14.6645L98.1399 3.74107H99.6029V18H98.6471V7.69105C98.6471 7.28792 98.6796 6.40365 98.7446 5.03822H98.6666L94.8922 18H93.8096ZM109.226 18L107.967 12.8309H104.505L103.266 18H102.272L105.705 3.74107H106.69L110.201 18H109.226ZM107.743 11.8653L106.485 6.54994C106.355 5.95176 106.254 5.38608 106.183 4.85292C106.124 5.41859 106.033 5.98427 105.91 6.54994L104.69 11.8653H107.743ZM113.826 11.7678V18H112.87V3.74107H114.82C116.212 3.74107 117.229 4.06942 117.873 4.72613C118.517 5.38283 118.839 6.36464 118.839 7.67154C118.839 8.65985 118.663 9.4726 118.312 10.1098C117.961 10.747 117.372 11.2249 116.547 11.5435L119.375 18H118.302L115.64 11.7678H113.826ZM113.826 10.89H115.162C116.026 10.89 116.693 10.6235 117.161 10.0903C117.629 9.55713 117.863 8.76388 117.863 7.71055C117.863 6.63772 117.623 5.86398 117.142 5.38933C116.667 4.91469 115.916 4.67736 114.889 4.67736H113.826V10.89ZM127.847 18L126.589 12.8309H123.126L121.888 18H120.893L124.326 3.74107H125.311L128.822 18H127.847ZM126.364 11.8653L125.106 6.54994C124.976 5.95176 124.875 5.38608 124.804 4.85292C124.745 5.41859 124.654 5.98427 124.531 6.54994L123.312 11.8653H126.364Z" fill="white"/>
<path d="M43.7811 30.5808C44.0024 30.3595 44.2269 30.135 44.4545 29.9074C44.6821 29.6735 44.9034 29.43 45.1184 29.1771C45.3333 28.9242 45.5325 28.6618 45.7159 28.3899C45.9056 28.1117 46.0731 27.8177 46.2185 27.5079C46.2501 27.4383 46.2944 27.3878 46.3513 27.3562C46.4082 27.3182 46.4714 27.2992 46.541 27.2992C46.6485 27.2992 46.7338 27.3372 46.7971 27.4131C46.8666 27.4889 46.9014 27.5743 46.9014 27.6691C46.9014 27.7197 46.8919 27.7671 46.8729 27.8114C46.6769 28.2224 46.4525 28.5986 46.1996 28.94C45.9467 29.2814 45.6811 29.6071 45.4029 29.9169C45.1247 30.2204 44.8433 30.5144 44.5588 30.7989C44.2743 31.0898 44.0024 31.3806 43.7432 31.6715C43.7179 32.1077 43.7179 32.544 43.7432 32.9803C43.7685 33.4229 43.7811 33.8908 43.7811 34.3839C43.7811 34.7886 43.7685 35.1933 43.7432 35.5979C43.7179 36.0026 43.6768 36.3883 43.6199 36.755C43.563 37.128 43.4839 37.4758 43.3828 37.7982C43.2879 38.1207 43.1646 38.3989 43.0129 38.6329C42.8611 38.8731 42.6841 39.0596 42.4818 39.1924C42.2794 39.3315 42.0423 39.4011 41.7704 39.4011C41.3215 39.4011 40.9769 39.2462 40.7367 38.9363C40.4964 38.6265 40.3763 38.1934 40.3763 37.637C40.3763 37.3335 40.4079 37.0079 40.4711 36.6601C40.5407 36.3124 40.6355 35.952 40.7556 35.5789C40.8758 35.2122 41.018 34.8392 41.1824 34.4598C41.3531 34.0804 41.5365 33.7106 41.7325 33.3502C41.9285 32.9898 42.1372 32.6452 42.3585 32.3164C42.5798 31.9939 42.8042 31.6999 43.0318 31.4344C43.0445 31.1309 43.0571 30.8147 43.0698 30.4859C43.0888 30.1635 43.1077 29.8631 43.1267 29.5849C42.9623 29.8758 42.7568 30.1097 42.5102 30.2868C42.2699 30.4638 42.0044 30.5523 41.7135 30.5523C41.233 30.5523 40.8568 30.3911 40.5849 30.0686C40.313 29.7462 40.1771 29.3036 40.1771 28.7408C40.1771 28.3299 40.215 27.9568 40.2909 27.6217C40.3731 27.2803 40.4585 26.9894 40.547 26.7492C40.6418 26.5026 40.7272 26.3161 40.8031 26.1896C40.8789 26.0568 40.9169 25.9936 40.9169 25.9999C40.9864 25.8924 41.0844 25.8387 41.2109 25.8387C41.3184 25.8387 41.4037 25.8766 41.467 25.9525C41.5365 26.022 41.5713 26.1042 41.5713 26.1991C41.5713 26.2686 41.5523 26.3319 41.5144 26.3888C41.5207 26.3824 41.4891 26.4362 41.4195 26.55C41.3563 26.6575 41.2836 26.8156 41.2014 27.0242C41.1255 27.2329 41.0528 27.4826 40.9833 27.7735C40.92 28.0643 40.8884 28.3836 40.8884 28.7314C40.8884 29.0791 40.9516 29.351 41.0781 29.547C41.2046 29.743 41.41 29.841 41.6946 29.841C42.055 29.841 42.3806 29.5755 42.6714 29.0443C42.9623 28.5069 43.2089 27.7292 43.4112 26.7112C43.4239 26.629 43.4618 26.5626 43.525 26.5121C43.5883 26.4552 43.6641 26.4267 43.7526 26.4267C43.8538 26.4267 43.9392 26.4615 44.0087 26.531C44.0783 26.6006 44.113 26.6859 44.113 26.7871C44.113 26.8061 44.1004 26.9199 44.0751 27.1285C44.0498 27.3309 44.0182 27.6027 43.9803 27.9442C43.9487 28.2856 43.9139 28.6839 43.8759 29.1392C43.838 29.5881 43.8064 30.0686 43.7811 30.5808ZM43.0224 32.5914C42.7378 33.0024 42.4754 33.4355 42.2352 33.8908C42.0012 34.346 41.7989 34.7981 41.6282 35.247C41.4575 35.6959 41.3247 36.1259 41.2298 36.5368C41.135 36.9478 41.0876 37.3146 41.0876 37.637C41.0876 37.9658 41.1413 38.2219 41.2488 38.4052C41.3563 38.5949 41.527 38.6898 41.761 38.6898C41.9696 38.6898 42.153 38.5854 42.311 38.3768C42.4754 38.1745 42.6114 37.8836 42.7189 37.5042C42.8327 37.1249 42.918 36.6633 42.9749 36.1195C43.0318 35.5821 43.0603 34.9783 43.0603 34.3081C43.0603 34.0362 43.054 33.7611 43.0413 33.4829C43.035 33.2047 43.0287 32.9076 43.0224 32.5914ZM50.6002 29.4047C50.4422 29.4047 50.3031 29.3921 50.1829 29.3668C50.0881 29.5565 49.9743 29.7335 49.8415 29.8979C49.7087 30.056 49.5538 30.1951 49.3768 30.3152C49.2061 30.4354 49.0132 30.5302 48.7982 30.5997C48.5833 30.6693 48.3493 30.7041 48.0964 30.7041C47.7992 30.7041 47.5274 30.6503 47.2808 30.5428C47.0342 30.4417 46.8192 30.2994 46.6358 30.1161C46.4525 29.9264 46.3102 29.7019 46.209 29.4427C46.1079 29.1771 46.0573 28.8863 46.0573 28.5701C46.0573 28.1655 46.13 27.8146 46.2754 27.5174C46.4209 27.2139 46.5884 26.9641 46.7781 26.7681C46.9678 26.5658 47.1575 26.4172 47.3472 26.3224C47.5368 26.2212 47.6791 26.1706 47.7739 26.1706C47.8814 26.1706 47.9605 26.1991 48.011 26.256C48.068 26.3129 48.0964 26.3888 48.0964 26.4836C48.0964 26.5911 48.0616 26.6733 47.9921 26.7302C47.9288 26.7808 47.8467 26.8314 47.7455 26.8819C47.6443 26.9325 47.5368 27.0052 47.423 27.1001C47.3092 27.1886 47.2017 27.3024 47.1006 27.4415C47.0057 27.5806 46.9267 27.745 46.8635 27.9347C46.8002 28.1244 46.7686 28.3362 46.7686 28.5701C46.7686 28.7788 46.8002 28.9748 46.8635 29.1581C46.9267 29.3352 47.0184 29.4901 47.1385 29.6229C47.2586 29.7493 47.4009 29.8505 47.5653 29.9264C47.7297 29.9959 47.913 30.0307 48.1154 30.0307C48.4758 30.0307 48.7729 29.9485 49.0069 29.7841C49.2472 29.6134 49.4305 29.3984 49.557 29.1392C49.1839 28.9432 48.8773 28.665 48.637 28.3046C48.3967 27.9442 48.2766 27.5395 48.2766 27.0906C48.2766 26.7302 48.362 26.4362 48.5327 26.2086C48.7097 25.9809 48.9405 25.8671 49.225 25.8671C49.3957 25.8671 49.557 25.9082 49.7087 25.9904C49.8605 26.0726 49.9932 26.2022 50.1071 26.3793C50.2272 26.5563 50.322 26.7839 50.3916 27.0621C50.4611 27.3403 50.4959 27.6723 50.4959 28.058C50.4959 28.2603 50.4706 28.4721 50.42 28.6934C50.458 28.6997 50.4959 28.7029 50.5338 28.7029C50.5718 28.7029 50.6129 28.7029 50.6571 28.7029C50.8721 28.7029 51.065 28.6776 51.2357 28.627C51.4064 28.5765 51.5613 28.5006 51.7004 28.3994C51.8395 28.2982 51.9628 28.1686 52.0703 28.0106C52.1841 27.8525 52.2916 27.6691 52.3927 27.4605C52.4117 27.4225 52.4528 27.3878 52.516 27.3562C52.5793 27.3182 52.6425 27.2992 52.7057 27.2992C52.7879 27.2992 52.8638 27.334 52.9333 27.4036C53.0092 27.4668 53.0472 27.5522 53.0472 27.6596C53.0472 27.7102 53.0345 27.7671 53.0092 27.8304C52.9839 27.8873 52.9586 27.941 52.9333 27.9916C52.8259 28.1813 52.6994 28.3646 52.554 28.5417C52.4149 28.7124 52.2473 28.8641 52.0513 28.9969C51.8616 29.1234 51.6467 29.2245 51.4064 29.3004C51.1661 29.3763 50.8974 29.4111 50.6002 29.4047ZM48.9784 27.0147C48.9784 27.1349 48.9942 27.2613 49.0259 27.3941C49.0575 27.5269 49.1049 27.6596 49.1681 27.7924C49.2377 27.9189 49.3199 28.0422 49.4147 28.1623C49.5159 28.2761 49.6328 28.3741 49.7656 28.4563C49.7846 28.3235 49.7941 28.1939 49.7941 28.0675C49.7941 27.8968 49.7814 27.7229 49.7561 27.5458C49.7308 27.3688 49.6929 27.2076 49.6423 27.0621C49.5981 26.9104 49.5412 26.7903 49.4716 26.7017C49.4021 26.6069 49.3199 26.5595 49.225 26.5595C49.1871 26.5595 49.1365 26.5879 49.0733 26.6448C49.01 26.7017 48.9784 26.825 48.9784 27.0147ZM55.8071 31.3774C56.9957 29.8284 57.8209 28.5417 58.2824 27.5174C58.314 27.4478 58.3551 27.3972 58.4057 27.3656C58.4626 27.3277 58.5259 27.3087 58.5954 27.3087C58.7029 27.3087 58.7914 27.3467 58.861 27.4225C58.9305 27.4921 58.9653 27.5743 58.9653 27.6691C58.9653 27.7134 58.9558 27.7576 58.9368 27.8019C58.6586 28.4342 58.2635 29.1392 57.7513 29.9169C57.2392 30.6946 56.5911 31.5735 55.8071 32.5535C55.8071 32.9518 55.8102 33.3502 55.8165 33.7485C55.8229 34.1468 55.826 34.5831 55.826 35.0573C55.826 35.5315 55.8134 35.9994 55.7881 36.461C55.7691 36.9289 55.7312 37.3715 55.6743 37.7888C55.6174 38.2124 55.5383 38.6012 55.4372 38.9553C55.3423 39.3157 55.2159 39.6255 55.0578 39.8848C54.9061 40.1503 54.7195 40.3558 54.4982 40.5012C54.2833 40.653 54.0272 40.7289 53.73 40.7289C53.3064 40.7289 52.9808 40.5676 52.7531 40.2452C52.5255 39.9227 52.4117 39.4643 52.4117 38.87C52.4117 38.5538 52.4402 38.2092 52.4971 37.8362C52.5603 37.4695 52.6488 37.0901 52.7626 36.6981C52.8764 36.3061 53.0124 35.9077 53.1704 35.5031C53.3348 35.1047 53.515 34.7159 53.711 34.3365C53.9071 33.9571 54.1189 33.5936 54.3465 33.2458C54.5804 32.8981 54.827 32.5819 55.0863 32.2974C55.0926 31.8548 55.0957 31.4154 55.0957 30.9791C55.1021 30.5428 55.1115 30.1413 55.1242 29.7746C54.9345 30.0149 54.7069 30.2046 54.4413 30.3437C54.1821 30.4828 53.9229 30.5523 53.6636 30.5523C53.4423 30.5523 53.24 30.5112 53.0566 30.429C52.8796 30.3405 52.7279 30.2204 52.6014 30.0686C52.4749 29.9106 52.3769 29.7272 52.3074 29.5185C52.2378 29.3099 52.2031 29.0823 52.2031 28.8357C52.2031 28.3425 52.2853 27.9094 52.4496 27.5364C52.6204 27.157 52.8353 26.8408 53.0946 26.5879C53.3538 26.335 53.6383 26.1453 53.9481 26.0189C54.2643 25.8924 54.5678 25.8292 54.8586 25.8292C55.0546 25.8292 55.2348 25.8545 55.3992 25.9051C55.5636 25.9557 55.7027 26.0126 55.8165 26.0758C55.9367 26.139 56.0283 26.1991 56.0916 26.256C56.1548 26.3129 56.1896 26.3445 56.1959 26.3508C56.2655 26.4267 56.3002 26.5121 56.3002 26.6069C56.3002 26.7017 56.2655 26.7871 56.1959 26.863C56.1264 26.9325 56.0442 26.9673 55.9493 26.9673C55.8608 26.9673 55.7754 26.9325 55.6932 26.863C55.6679 26.844 55.6332 26.8187 55.5889 26.7871C55.551 26.7492 55.4972 26.7112 55.4277 26.6733C55.3645 26.6354 55.2854 26.6037 55.1906 26.5784C55.1021 26.5532 54.9946 26.5405 54.8681 26.5405C54.6784 26.5405 54.4698 26.5848 54.2422 26.6733C54.0145 26.7555 53.8027 26.8883 53.6067 27.0716C53.4107 27.255 53.2463 27.4921 53.1135 27.7829C52.9808 28.0675 52.9144 28.4121 52.9144 28.8167C52.9144 29.1202 52.9808 29.3668 53.1135 29.5565C53.2463 29.7398 53.4518 29.8315 53.73 29.8315C53.8628 29.8315 54.0019 29.7936 54.1473 29.7177C54.2991 29.6418 54.4445 29.5249 54.5836 29.3668C54.7227 29.2087 54.8428 29.0096 54.944 28.7693C55.0515 28.529 55.1274 28.2445 55.1716 27.9157C55.1843 27.8272 55.2254 27.7545 55.2949 27.6976C55.3645 27.6344 55.4467 27.6027 55.5415 27.6027C55.649 27.6027 55.7312 27.6407 55.7881 27.7166C55.8513 27.7924 55.8829 27.8778 55.8829 27.9726C55.8829 27.9789 55.8798 28.077 55.8734 28.2666C55.8671 28.45 55.8608 28.6966 55.8545 29.0064C55.8481 29.3162 55.8387 29.6766 55.826 30.0876C55.8197 30.4923 55.8134 30.9222 55.8071 31.3774ZM55.0863 33.4545C54.7891 33.8655 54.5204 34.3112 54.2801 34.7918C54.0398 35.2786 53.8343 35.7686 53.6636 36.2618C53.4929 36.755 53.3601 37.2324 53.2653 37.6939C53.1768 38.1618 53.1325 38.5791 53.1325 38.9458C53.1325 39.1798 53.1515 39.3663 53.1894 39.5054C53.2337 39.6445 53.2843 39.752 53.3412 39.8279C53.4044 39.9037 53.4708 39.9543 53.5403 39.9796C53.6162 40.0049 53.6858 40.0175 53.749 40.0175C53.945 40.0175 54.1157 39.9385 54.2611 39.7804C54.4066 39.6224 54.5298 39.4106 54.631 39.145C54.7322 38.8858 54.8144 38.5854 54.8776 38.244C54.9408 37.9026 54.9882 37.5485 55.0199 37.1818C55.0515 36.8214 55.0736 36.461 55.0863 36.1006C55.0989 35.7402 55.1052 35.4082 55.1052 35.1047C55.1052 34.8329 55.1052 34.561 55.1052 34.2891C55.1052 34.0172 55.0989 33.739 55.0863 33.4545ZM65.6232 27.8019C65.5979 27.8525 65.5442 27.96 65.462 28.1244C65.3861 28.2824 65.2849 28.4658 65.1585 28.6745C65.0383 28.8831 64.8961 29.1012 64.7317 29.3289C64.5673 29.5565 64.3839 29.7651 64.1816 29.9548C63.9793 30.1445 63.7611 30.3026 63.5272 30.429C63.2932 30.5492 63.0467 30.6092 62.7874 30.6092C62.4207 30.6092 62.1109 30.4923 61.858 30.2583C61.6114 30.0244 61.4312 29.7304 61.3174 29.3763C61.1024 29.7367 60.8463 30.0244 60.5491 30.2393C60.252 30.448 59.9548 30.5523 59.6576 30.5523C59.4237 30.5523 59.2119 30.5112 59.0222 30.429C58.8325 30.3405 58.6713 30.2204 58.5385 30.0686C58.4057 29.9106 58.3014 29.7272 58.2255 29.5185C58.156 29.3099 58.1212 29.0823 58.1212 28.8357C58.1212 28.3425 58.2034 27.9094 58.3678 27.5364C58.5385 27.157 58.7535 26.8408 59.0127 26.5879C59.2719 26.335 59.5565 26.1453 59.8663 26.0189C60.1824 25.8924 60.4859 25.8292 60.7768 25.8292C60.9728 25.8292 61.153 25.8576 61.3174 25.9146C61.4818 25.9651 61.6209 26.022 61.7347 26.0853C61.8548 26.1485 61.9465 26.2086 62.0097 26.2655C62.0729 26.3161 62.1077 26.3445 62.114 26.3508C62.1836 26.433 62.2184 26.5184 62.2184 26.6069C62.2184 26.7017 62.1836 26.7871 62.114 26.863C62.0445 26.9325 61.9623 26.9673 61.8675 26.9673C61.7663 26.9673 61.6809 26.9325 61.6114 26.863C61.5987 26.8503 61.5703 26.8282 61.526 26.7966C61.4818 26.7586 61.4217 26.7207 61.3458 26.6828C61.2699 26.6448 61.1783 26.6132 61.0708 26.5879C60.9696 26.5563 60.8526 26.5405 60.7199 26.5405C60.5239 26.5405 60.3152 26.5848 60.0939 26.6733C59.8726 26.7618 59.6703 26.9009 59.4869 27.0906C59.3036 27.274 59.1486 27.5079 59.0222 27.7924C58.9021 28.0706 58.842 28.4026 58.842 28.7883C58.842 28.9084 58.8546 29.0317 58.8799 29.1581C58.9052 29.2783 58.9495 29.3889 59.0127 29.4901C59.0759 29.5913 59.1613 29.6735 59.2688 29.7367C59.3763 29.7999 59.509 29.8315 59.6671 29.8315C59.7809 29.8315 59.9105 29.7936 60.056 29.7177C60.2077 29.6418 60.35 29.5249 60.4828 29.3668C60.6219 29.2087 60.7452 29.0096 60.8526 28.7693C60.9665 28.529 61.0455 28.2445 61.0897 27.9157C61.1024 27.8272 61.1435 27.7545 61.213 27.6976C61.2826 27.6344 61.3648 27.6027 61.4596 27.6027C61.5481 27.6027 61.624 27.6375 61.6873 27.7071C61.7568 27.7766 61.7947 27.8557 61.8011 27.9442C61.8074 28.0643 61.82 28.235 61.839 28.4563C61.858 28.6713 61.8991 28.8863 61.9623 29.1012C62.0318 29.3162 62.133 29.5027 62.2658 29.6608C62.3986 29.8189 62.5819 29.8979 62.8159 29.8979C62.9676 29.8979 63.1162 29.8568 63.2616 29.7746C63.4134 29.6924 63.5588 29.5849 63.6979 29.4522C63.8433 29.3131 63.9793 29.1581 64.1057 28.9874C64.2385 28.8104 64.3586 28.6334 64.4661 28.4563C64.5736 28.2793 64.6684 28.1086 64.7506 27.9442C64.8328 27.7798 64.9024 27.6375 64.9593 27.5174C64.9909 27.4478 65.0352 27.3941 65.0921 27.3562C65.1553 27.3182 65.2217 27.2992 65.2912 27.2992C65.3987 27.2992 65.4841 27.3403 65.5473 27.4225C65.6169 27.4984 65.6516 27.5806 65.6516 27.6691C65.6516 27.7134 65.6422 27.7576 65.6232 27.8019ZM81.3195 26.0663C81.3195 26.1548 81.2879 26.2339 81.2247 26.3034C81.1615 26.3666 81.0698 26.3982 80.9496 26.3982C80.8611 26.3982 80.7663 26.3951 80.6651 26.3888C80.5703 26.3824 80.4312 26.3793 80.2478 26.3793C80.153 26.3793 80.0107 26.3856 79.821 26.3982C79.6377 26.4046 79.4258 26.4172 79.1856 26.4362C78.9516 26.4552 78.6987 26.4773 78.4268 26.5026C78.155 26.5215 77.8799 26.5437 77.6017 26.569C77.608 26.6006 77.6112 26.6512 77.6112 26.7207C77.6112 27.334 77.4753 27.8778 77.2034 28.352C76.9378 28.8262 76.5806 29.2277 76.1317 29.5565C75.6891 29.8789 75.1738 30.1255 74.5857 30.2963C73.9977 30.4606 73.3876 30.5428 72.7553 30.5428C72.3001 30.5428 71.8701 30.4796 71.4655 30.3532C71.0671 30.2267 70.7162 30.0433 70.4127 29.8031C70.1155 29.5628 69.8784 29.2688 69.7014 28.921C69.5307 28.5733 69.4453 28.175 69.4453 27.726C69.4453 27.3656 69.518 27.0337 69.6635 26.7302C69.8089 26.4267 70.0049 26.158 70.2515 25.924C70.5044 25.6838 70.8016 25.4814 71.143 25.3171C71.4844 25.1527 71.8543 25.0262 72.2526 24.9377C72.1388 24.8871 72.0187 24.8175 71.8922 24.729C71.7721 24.6342 71.6615 24.5235 71.5603 24.3971C71.4591 24.2643 71.3738 24.1157 71.3042 23.9513C71.241 23.7806 71.2094 23.5941 71.2094 23.3918C71.2094 22.9112 71.3169 22.4939 71.5318 22.1398C71.7531 21.7858 72.0345 21.4918 72.3759 21.2578C72.7174 21.0239 73.0936 20.85 73.5046 20.7362C73.9219 20.6224 74.3265 20.5655 74.7185 20.5655C75.06 20.5655 75.3761 20.6066 75.6669 20.6888C75.9641 20.7646 76.217 20.8753 76.4257 21.0207C76.6407 21.1598 76.8082 21.3337 76.9283 21.5423C77.0548 21.7447 77.118 21.9691 77.118 22.2157C77.118 22.4244 77.0769 22.6235 76.9947 22.8132C76.9125 22.9966 76.7987 23.1578 76.6533 23.2969C76.5142 23.436 76.3466 23.5467 76.1506 23.6289C75.961 23.7047 75.7523 23.7427 75.5247 23.7427C75.3224 23.7427 75.1422 23.7142 74.9841 23.6573C74.8323 23.5941 74.7027 23.5214 74.5952 23.4392C74.4877 23.3507 74.4056 23.2621 74.3486 23.1736C74.2917 23.0788 74.2633 22.9997 74.2633 22.9365C74.2633 22.8354 74.2949 22.75 74.3581 22.6804C74.4277 22.6109 74.513 22.5761 74.6142 22.5761C74.6838 22.5761 74.7375 22.5951 74.7754 22.633C74.8134 22.6646 74.8513 22.7026 74.8892 22.7468C74.9525 22.8227 75.0283 22.8986 75.1169 22.9745C75.2117 23.0503 75.3603 23.0883 75.5626 23.0883C75.7017 23.0883 75.8219 23.0661 75.923 23.0219C76.0242 22.9713 76.1095 22.9081 76.1791 22.8322C76.2486 22.75 76.2992 22.6615 76.3308 22.5666C76.3688 22.4655 76.3877 22.3675 76.3877 22.2726C76.3877 22.1525 76.353 22.0324 76.2834 21.9122C76.2202 21.7921 76.1222 21.6846 75.9894 21.5898C75.8566 21.4949 75.6859 21.419 75.4773 21.3621C75.2686 21.3052 75.022 21.2768 74.7375 21.2768C74.453 21.2768 74.1463 21.3179 73.8175 21.4001C73.4951 21.476 73.1916 21.5961 72.907 21.7605C72.6288 21.9185 72.3949 22.1272 72.2052 22.3864C72.0219 22.6393 71.9302 22.9397 71.9302 23.2874C71.9302 23.5151 71.9681 23.7079 72.044 23.866C72.1262 24.0177 72.2368 24.1442 72.3759 24.2453C72.515 24.3465 72.6794 24.4287 72.8691 24.4919C73.0651 24.5488 73.2801 24.5994 73.514 24.6437C73.6026 24.6626 73.6848 24.6816 73.7606 24.7006C73.8428 24.7132 73.9124 24.7354 73.9693 24.767C74.0325 24.7923 74.0799 24.8302 74.1115 24.8808C74.1495 24.925 74.1684 24.9883 74.1684 25.0705C74.1684 25.1716 74.1337 25.2538 74.0641 25.3171C74.0009 25.374 73.9124 25.4024 73.7986 25.4024C73.6848 25.4024 73.5172 25.4087 73.2959 25.4214C73.0746 25.434 72.828 25.4688 72.5561 25.5257C72.2906 25.5763 72.0155 25.6522 71.731 25.7533C71.4465 25.8482 71.1872 25.9841 70.9533 26.1611C70.7257 26.3319 70.536 26.5437 70.3843 26.7966C70.2388 27.0495 70.1661 27.3562 70.1661 27.7166C70.1661 28.077 70.2325 28.3931 70.3653 28.665C70.5044 28.9305 70.6909 29.1518 70.9249 29.3289C71.1588 29.4996 71.4307 29.6292 71.7405 29.7177C72.0566 29.7999 72.3949 29.841 72.7553 29.841C73.2611 29.841 73.7606 29.7809 74.2538 29.6608C74.7533 29.5344 75.1991 29.3447 75.5911 29.0918C75.9831 28.8388 76.2992 28.5195 76.5395 28.1339C76.7861 27.7482 76.9094 27.2961 76.9094 26.7776C76.9094 26.7523 76.9062 26.7302 76.8999 26.7112C76.8999 26.6859 76.8999 26.6575 76.8999 26.6259C76.5585 26.6575 76.2486 26.6891 75.9704 26.7207C75.6986 26.746 75.4836 26.765 75.3255 26.7776C75.2749 26.7839 75.2307 26.7903 75.1927 26.7966C75.1611 26.7966 75.1358 26.7966 75.1169 26.7966C75.0094 26.7966 74.9177 26.765 74.8418 26.7017C74.7659 26.6385 74.728 26.5468 74.728 26.4267C74.728 26.3382 74.7565 26.2623 74.8134 26.1991C74.8766 26.1295 74.9588 26.0884 75.06 26.0758C75.2433 26.0568 75.4804 26.0315 75.7713 25.9999C76.0621 25.9683 76.3783 25.9398 76.7197 25.9146C77.0674 25.8829 77.4247 25.8545 77.7914 25.8292C78.1581 25.7976 78.5059 25.7691 78.8347 25.7438C79.1698 25.7185 79.4733 25.6996 79.7451 25.6869C80.0234 25.6743 80.2447 25.668 80.409 25.668C80.7631 25.668 81.0034 25.6996 81.1298 25.7628C81.2563 25.826 81.3195 25.9272 81.3195 26.0663ZM91.7332 20.9543C91.7332 21.0555 91.6984 21.1377 91.6288 21.2009C91.5593 21.2578 91.4739 21.2863 91.3728 21.2863H86.5643V21.3906C86.5643 21.7763 86.5358 22.1873 86.4789 22.6235C86.422 23.0598 86.343 23.4961 86.2418 23.9324C86.147 24.3623 86.0363 24.7828 85.9099 25.1938C85.7897 25.6047 85.6633 25.9841 85.5305 26.3319C85.4041 26.6796 85.2776 26.9831 85.1511 27.2423C85.0247 27.4953 84.9109 27.6849 84.8097 27.8114C84.8919 28.1022 84.9899 28.3741 85.1037 28.627C85.2175 28.8736 85.344 29.0918 85.4831 29.2814C85.6285 29.4648 85.7834 29.6102 85.9478 29.7177C86.1122 29.8252 86.2892 29.8789 86.4789 29.8789C86.7002 29.8789 86.9184 29.7873 87.1333 29.6039C87.3546 29.4142 87.557 29.1929 87.7403 28.94C87.93 28.6808 88.0944 28.4215 88.2335 28.1623C88.3789 27.8968 88.4833 27.6849 88.5465 27.5269C88.6097 27.3751 88.7204 27.2992 88.8784 27.2992C88.9859 27.2992 89.0713 27.3372 89.1345 27.4131C89.2041 27.4889 89.2388 27.5711 89.2388 27.6596C89.2388 27.7039 89.2293 27.7482 89.2104 27.7924C89.1914 27.8367 89.144 27.9378 89.0681 28.0959C88.9986 28.254 88.9037 28.4373 88.7836 28.646C88.6698 28.8547 88.5338 29.076 88.3758 29.3099C88.224 29.5375 88.0501 29.7462 87.8541 29.9359C87.6645 30.1255 87.459 30.2836 87.2377 30.4101C87.0164 30.5365 86.7824 30.5997 86.5358 30.5997C86.0996 30.5997 85.7075 30.4575 85.3598 30.173C85.012 29.8884 84.7149 29.4901 84.4683 28.9779C84.228 28.4658 84.0447 27.8588 83.9182 27.157C83.7917 26.4552 83.7285 25.6869 83.7285 24.8523C83.7285 24.6437 83.7317 24.4002 83.738 24.122C83.7443 23.8375 83.757 23.5403 83.7759 23.2305C83.7949 22.9144 83.8234 22.5919 83.8613 22.2631C83.8992 21.928 83.9498 21.6024 84.013 21.2863H80.6082C80.507 21.2863 80.4217 21.2578 80.3521 21.2009C80.2826 21.1377 80.2478 21.0555 80.2478 20.9543C80.2478 20.8532 80.2826 20.7741 80.3521 20.7172C80.4217 20.654 80.507 20.6224 80.6082 20.6224H84.1743C84.2375 20.3948 84.3102 20.1861 84.3924 19.9964C84.4809 19.8067 84.5789 19.6423 84.6864 19.5032C84.8002 19.3641 84.9235 19.2567 85.0563 19.1808C85.1954 19.0986 85.3471 19.0575 85.5115 19.0575C85.6696 19.0575 85.8055 19.0986 85.9194 19.1808C86.0395 19.2567 86.1407 19.3641 86.2229 19.5032C86.3051 19.6423 86.3683 19.8067 86.4125 19.9964C86.4631 20.1861 86.5011 20.3948 86.5263 20.6224H91.3728C91.4739 20.6224 91.5593 20.654 91.6288 20.7172C91.6984 20.7741 91.7332 20.8532 91.7332 20.9543ZM84.5916 26.863C84.7813 26.4457 84.952 25.9968 85.1037 25.5162C85.2618 25.0294 85.3946 24.5393 85.5021 24.0462C85.6159 23.553 85.7012 23.0693 85.7581 22.5951C85.8214 22.1209 85.853 21.6846 85.853 21.2863H84.7338C84.6453 21.6783 84.5726 22.1651 84.5157 22.7468C84.4651 23.3222 84.4398 24.024 84.4398 24.8523C84.4398 25.3139 84.4525 25.7027 84.4778 26.0189C84.5031 26.3287 84.541 26.6101 84.5916 26.863ZM85.4736 19.7688C85.4167 19.7688 85.3345 19.832 85.227 19.9585C85.1195 20.0786 85.012 20.2999 84.9046 20.6224H85.815C85.7834 20.3568 85.736 20.1482 85.6728 19.9964C85.6159 19.8447 85.5495 19.7688 85.4736 19.7688ZM84.7433 27.5458V27.5553V27.5458ZM89.7225 29.4047C89.8553 29.5881 90.026 29.7367 90.2347 29.8505C90.4433 29.958 90.6994 30.0117 91.0029 30.0117C91.3127 30.0117 91.5941 29.939 91.847 29.7936C92.0999 29.6418 92.3307 29.4458 92.5393 29.2056C92.748 28.9653 92.9345 28.6966 93.0989 28.3994C93.2633 28.1022 93.4119 27.8051 93.5446 27.5079C93.5763 27.4383 93.6205 27.3878 93.6774 27.3562C93.7343 27.3182 93.7976 27.2992 93.8671 27.2992C93.9746 27.2992 94.06 27.3372 94.1232 27.4131C94.1927 27.4889 94.2275 27.5711 94.2275 27.6596C94.2275 27.6913 94.2243 27.7197 94.218 27.745C94.2117 27.764 94.2022 27.7861 94.1896 27.8114C93.7533 28.7725 93.2759 29.4964 92.7575 29.9833C92.2453 30.4701 91.6636 30.7199 91.0124 30.7325C90.5951 30.7325 90.2347 30.6503 89.9312 30.4859C89.6277 30.3279 89.3779 30.1224 89.1819 29.8695C88.9859 29.6102 88.8405 29.3194 88.7456 28.9969C88.6508 28.6745 88.6034 28.352 88.6034 28.0295C88.6034 27.7071 88.6413 27.4099 88.7172 27.138C88.7994 26.8661 88.9132 26.629 89.0586 26.4267C89.2104 26.2244 89.3874 26.0663 89.5897 25.9525C89.7984 25.8387 90.026 25.7818 90.2726 25.7818C90.418 25.7818 90.5603 25.8134 90.6994 25.8766C90.8448 25.9335 90.9744 26.0189 91.0882 26.1327C91.2021 26.2402 91.2937 26.373 91.3633 26.531C91.4328 26.6891 91.4676 26.8693 91.4676 27.0716C91.4676 27.3309 91.4234 27.5743 91.3348 27.8019C91.2463 28.0295 91.123 28.2413 90.9649 28.4373C90.8132 28.6334 90.6298 28.8136 90.4149 28.9779C90.1999 29.1423 89.9691 29.2846 89.7225 29.4047ZM89.438 28.7883C89.634 28.7061 89.811 28.6017 89.9691 28.4753C90.1335 28.3488 90.2726 28.2097 90.3864 28.058C90.5002 27.9062 90.5887 27.7482 90.652 27.5838C90.7152 27.4131 90.7468 27.2423 90.7468 27.0716C90.7468 26.8819 90.6994 26.7397 90.6046 26.6448C90.5097 26.5437 90.3991 26.4931 90.2726 26.4931C90.1019 26.4931 89.9565 26.5405 89.8363 26.6354C89.7162 26.7302 89.6182 26.8535 89.5423 27.0052C89.4664 27.157 89.4095 27.3277 89.3716 27.5174C89.34 27.7007 89.3242 27.8841 89.3242 28.0675C89.3242 28.1813 89.3337 28.3014 89.3526 28.4279C89.3779 28.5543 89.4064 28.6745 89.438 28.7883ZM94.55 26.55C94.5247 26.7207 94.4931 26.8819 94.4551 27.0337C94.4172 27.1791 94.3793 27.3087 94.3413 27.4225C94.3097 27.53 94.2813 27.6185 94.256 27.6881C94.2307 27.7576 94.2149 27.7956 94.2085 27.8019C94.1453 27.9473 94.0347 28.02 93.8766 28.02C93.7881 28.02 93.7059 27.9884 93.63 27.9252C93.5541 27.8557 93.5162 27.7703 93.5162 27.6691C93.5162 27.6312 93.5225 27.6027 93.5352 27.5838C93.5478 27.5648 93.5668 27.5269 93.5921 27.47C93.6174 27.4131 93.649 27.3182 93.6869 27.1854C93.7248 27.0527 93.7723 26.8472 93.8292 26.569C93.7217 26.569 93.611 26.5658 93.4972 26.5595C93.3834 26.5532 93.2791 26.531 93.1842 26.4931C93.0831 26.4552 93.0009 26.3951 92.9377 26.3129C92.8744 26.2307 92.8428 26.1169 92.8428 25.9715C92.8428 25.864 92.8744 25.7185 92.9377 25.5352C92.9946 25.3518 93.0736 25.1716 93.1748 24.9946C93.2759 24.8175 93.3897 24.6658 93.5162 24.5393C93.6427 24.4066 93.7691 24.3402 93.8956 24.3402C94.041 24.3402 94.158 24.3939 94.2465 24.5014C94.3413 24.6089 94.414 24.7417 94.4646 24.8997C94.5152 25.0515 94.55 25.2127 94.5689 25.3834C94.5942 25.5542 94.6069 25.7027 94.6069 25.8292C94.7144 25.8292 94.8187 25.8292 94.9199 25.8292C95.0273 25.8229 95.1285 25.8197 95.2234 25.8197C95.5837 25.8197 95.8588 25.8987 96.0485 26.0568C96.2382 26.2149 96.333 26.4741 96.333 26.8345C96.333 26.9799 96.3235 27.1317 96.3045 27.2898C96.2856 27.4478 96.2634 27.6122 96.2382 27.7829C96.2129 27.9473 96.1907 28.1117 96.1718 28.2761C96.1528 28.4405 96.1433 28.6017 96.1433 28.7598C96.1433 28.9874 96.1749 29.1771 96.2382 29.3289C96.3014 29.4743 96.3804 29.5913 96.4753 29.6798C96.5701 29.7683 96.6713 29.8315 96.7788 29.8695C96.8862 29.9011 96.9842 29.9169 97.0728 29.9169C97.3446 29.9169 97.6007 29.8284 97.841 29.6513C98.0813 29.4743 98.3026 29.2625 98.5049 29.0159C98.7072 28.763 98.8874 28.4974 99.0455 28.2192C99.2099 27.941 99.3458 27.6976 99.4533 27.4889C99.4849 27.432 99.5292 27.3878 99.5861 27.3562C99.643 27.3245 99.703 27.3087 99.7663 27.3087C99.8801 27.3087 99.9686 27.3467 100.032 27.4225C100.095 27.4921 100.127 27.5711 100.127 27.6596C100.127 27.7229 100.114 27.7798 100.089 27.8304C99.9433 28.0896 99.7726 28.3836 99.5766 28.7124C99.3869 29.0349 99.1688 29.3383 98.9222 29.6229C98.6756 29.9074 98.3974 30.1477 98.0876 30.3437C97.7841 30.5397 97.449 30.6377 97.0823 30.6377C96.8546 30.6377 96.6397 30.5934 96.4373 30.5049C96.235 30.4227 96.058 30.3026 95.9062 30.1445C95.7608 29.9801 95.6438 29.7809 95.5553 29.547C95.4668 29.3067 95.4225 29.038 95.4225 28.7408C95.4225 28.4247 95.4541 28.1117 95.5174 27.8019C95.5806 27.4858 95.6122 27.1854 95.6122 26.9009C95.6122 26.7808 95.5837 26.6923 95.5268 26.6354C95.4763 26.5721 95.3593 26.5405 95.1759 26.5405C95.0874 26.5405 94.9894 26.5405 94.8819 26.5405C94.7808 26.5405 94.6701 26.5437 94.55 26.55ZM93.9145 25.8482C93.9145 25.8039 93.9114 25.747 93.905 25.6774C93.905 25.6016 93.8987 25.5289 93.8861 25.4593C93.8798 25.3898 93.8671 25.3297 93.8481 25.2791C93.8355 25.2285 93.8197 25.2032 93.8007 25.2032C93.7818 25.2032 93.7565 25.2285 93.7248 25.2791C93.6996 25.3234 93.6711 25.3803 93.6395 25.4498C93.6079 25.5131 93.5794 25.5826 93.5541 25.6585C93.5288 25.7344 93.5099 25.7976 93.4972 25.8482H93.9145ZM106.785 27.8019C106.759 27.8525 106.706 27.96 106.623 28.1244C106.547 28.2824 106.446 28.4658 106.32 28.6745C106.2 28.8831 106.057 29.1012 105.893 29.3289C105.729 29.5565 105.545 29.7651 105.343 29.9548C105.141 30.1445 104.923 30.3026 104.689 30.429C104.455 30.5492 104.208 30.6092 103.949 30.6092C103.582 30.6092 103.272 30.4923 103.019 30.2583C102.773 30.0244 102.593 29.7304 102.479 29.3763C102.264 29.7367 102.008 30.0244 101.711 30.2393C101.413 30.448 101.116 30.5523 100.819 30.5523C100.585 30.5523 100.373 30.5112 100.184 30.429C99.9939 30.3405 99.8327 30.2204 99.6999 30.0686C99.5671 29.9106 99.4628 29.7272 99.3869 29.5185C99.3174 29.3099 99.2826 29.0823 99.2826 28.8357C99.2826 28.3425 99.3648 27.9094 99.5292 27.5364C99.6999 27.157 99.9149 26.8408 100.174 26.5879C100.433 26.335 100.718 26.1453 101.028 26.0189C101.344 25.8924 101.647 25.8292 101.938 25.8292C102.134 25.8292 102.314 25.8576 102.479 25.9146C102.643 25.9651 102.782 26.022 102.896 26.0853C103.016 26.1485 103.108 26.2086 103.171 26.2655C103.234 26.3161 103.269 26.3445 103.275 26.3508C103.345 26.433 103.38 26.5184 103.38 26.6069C103.38 26.7017 103.345 26.7871 103.275 26.863C103.206 26.9325 103.124 26.9673 103.029 26.9673C102.928 26.9673 102.842 26.9325 102.773 26.863C102.76 26.8503 102.732 26.8282 102.687 26.7966C102.643 26.7586 102.583 26.7207 102.507 26.6828C102.431 26.6448 102.34 26.6132 102.232 26.5879C102.131 26.5563 102.014 26.5405 101.881 26.5405C101.685 26.5405 101.477 26.5848 101.255 26.6733C101.034 26.7618 100.832 26.9009 100.648 27.0906C100.465 27.274 100.31 27.5079 100.184 27.7924C100.063 28.0706 100.003 28.4026 100.003 28.7883C100.003 28.9084 100.016 29.0317 100.041 29.1581C100.067 29.2783 100.111 29.3889 100.174 29.4901C100.237 29.5913 100.323 29.6735 100.43 29.7367C100.538 29.7999 100.67 29.8315 100.829 29.8315C100.942 29.8315 101.072 29.7936 101.217 29.7177C101.369 29.6418 101.511 29.5249 101.644 29.3668C101.783 29.2087 101.907 29.0096 102.014 28.7693C102.128 28.529 102.207 28.2445 102.251 27.9157C102.264 27.8272 102.305 27.7545 102.374 27.6976C102.444 27.6344 102.526 27.6027 102.621 27.6027C102.71 27.6027 102.785 27.6375 102.849 27.7071C102.918 27.7766 102.956 27.8557 102.962 27.9442C102.969 28.0643 102.981 28.235 103 28.4563C103.019 28.6713 103.06 28.8863 103.124 29.1012C103.193 29.3162 103.294 29.5027 103.427 29.6608C103.56 29.8189 103.743 29.8979 103.977 29.8979C104.129 29.8979 104.278 29.8568 104.423 29.7746C104.575 29.6924 104.72 29.5849 104.859 29.4522C105.005 29.3131 105.141 29.1581 105.267 28.9874C105.4 28.8104 105.52 28.6334 105.628 28.4563C105.735 28.2793 105.83 28.1086 105.912 27.9442C105.994 27.7798 106.064 27.6375 106.121 27.5174C106.152 27.4478 106.197 27.3941 106.253 27.3562C106.317 27.3182 106.383 27.2992 106.453 27.2992C106.56 27.2992 106.645 27.3403 106.709 27.4225C106.778 27.4984 106.813 27.5806 106.813 27.6691C106.813 27.7134 106.804 27.7576 106.785 27.8019ZM110.996 27.8019C110.996 28.3836 110.891 28.8799 110.683 29.2909C110.474 29.7019 110.218 30.0149 109.914 30.2299H109.952C110.325 30.2299 110.664 30.1477 110.967 29.9833C111.277 29.8126 111.555 29.5976 111.802 29.3383C112.048 29.0728 112.27 28.7788 112.466 28.4563C112.662 28.1339 112.835 27.8209 112.987 27.5174C113.019 27.4478 113.063 27.3941 113.12 27.3562C113.183 27.3182 113.25 27.2992 113.319 27.2992C113.427 27.2992 113.512 27.3372 113.575 27.4131C113.638 27.4889 113.67 27.5711 113.67 27.6596C113.67 27.7102 113.661 27.7576 113.642 27.8019C113.477 28.1686 113.281 28.5385 113.054 28.9116C112.826 29.2783 112.56 29.6102 112.257 29.9074C111.953 30.2046 111.612 30.4448 111.233 30.6282C110.853 30.8179 110.433 30.9127 109.971 30.9127C109.636 30.9127 109.311 30.859 108.994 30.7515C108.678 30.6503 108.4 30.4891 108.16 30.2678C108.071 30.1982 107.995 30.1255 107.932 30.0497C107.869 29.9675 107.818 29.8916 107.78 29.822C107.768 29.8094 107.761 29.7968 107.761 29.7841C107.724 29.7272 107.705 29.6671 107.705 29.6039C107.705 29.5217 107.733 29.4458 107.79 29.3763C107.796 29.3636 107.803 29.3573 107.809 29.3573C107.815 29.351 107.822 29.3447 107.828 29.3383C107.891 29.2814 107.961 29.2498 108.036 29.2435H108.065C108.097 29.2435 108.119 29.2467 108.131 29.253C108.138 29.253 108.141 29.2562 108.141 29.2625C108.147 29.2625 108.153 29.2625 108.16 29.2625C108.179 29.2625 108.201 29.2688 108.226 29.2814C108.233 29.2878 108.239 29.2909 108.245 29.2909C108.302 29.3289 108.349 29.3763 108.387 29.4332C108.432 29.5091 108.482 29.5786 108.539 29.6418C108.59 29.6924 108.65 29.7398 108.719 29.7841C108.789 29.822 108.868 29.841 108.956 29.841C109.115 29.841 109.273 29.7936 109.431 29.6987C109.589 29.6039 109.731 29.468 109.857 29.2909C109.984 29.1139 110.085 28.8989 110.161 28.646C110.243 28.3931 110.284 28.1117 110.284 27.8019C110.284 27.5743 110.259 27.3814 110.208 27.2234C110.164 27.059 110.104 26.9262 110.028 26.825C109.959 26.7239 109.883 26.6512 109.801 26.6069C109.718 26.5563 109.639 26.531 109.563 26.531C109.393 26.531 109.219 26.6195 109.042 26.7966C108.871 26.9736 108.7 27.1981 108.53 27.47C108.359 27.7418 108.188 28.0422 108.018 28.371C107.853 28.6997 107.686 29.019 107.515 29.3289C107.502 30.3532 107.483 31.33 107.458 32.2595C107.439 33.1889 107.401 34.052 107.344 34.8487C107.294 35.6453 107.221 36.3661 107.126 37.0111C107.031 37.656 106.902 38.2061 106.737 38.6613C106.573 39.1229 106.37 39.4769 106.13 39.7235C105.89 39.9701 105.596 40.0934 105.248 40.0934C105.141 40.0934 105.017 40.0713 104.878 40.027C104.739 39.9828 104.61 39.8911 104.489 39.752C104.369 39.6192 104.268 39.4264 104.186 39.1735C104.104 38.9205 104.063 38.5823 104.063 38.1586C104.063 37.6212 104.129 36.9984 104.262 36.2903C104.395 35.5821 104.584 34.8297 104.831 34.033C105.071 33.2427 105.359 32.4302 105.694 31.5956C106.029 30.761 106.399 29.9485 106.804 29.1581C106.804 28.9369 106.804 28.7187 106.804 28.5037C106.81 28.2888 106.813 28.0801 106.813 27.8778C106.731 27.9726 106.633 28.02 106.519 28.02C106.412 28.02 106.326 27.9821 106.263 27.9062C106.2 27.8304 106.168 27.7482 106.168 27.6596C106.168 27.6154 106.178 27.568 106.197 27.5174C106.348 27.1696 106.465 26.8408 106.547 26.531C106.63 26.2149 106.69 25.9398 106.728 25.7059C106.772 25.4656 106.797 25.276 106.804 25.1369C106.81 24.9977 106.813 24.925 106.813 24.9187C106.813 24.8239 106.848 24.7417 106.917 24.6721C106.987 24.6026 107.072 24.5678 107.173 24.5678C107.268 24.5678 107.35 24.6026 107.42 24.6721C107.49 24.7354 107.524 24.8175 107.524 24.9187V27.8304C107.67 27.5838 107.815 27.3403 107.961 27.1001C108.106 26.8598 108.258 26.6448 108.416 26.4552C108.58 26.2655 108.754 26.1137 108.937 25.9999C109.127 25.8798 109.336 25.8197 109.563 25.8197C109.778 25.8197 109.974 25.8703 110.151 25.9715C110.329 26.0726 110.48 26.2117 110.607 26.3888C110.733 26.5658 110.828 26.7776 110.891 27.0242C110.961 27.2645 110.996 27.5237 110.996 27.8019ZM106.785 30.8463C106.475 31.5418 106.193 32.2405 105.94 32.9423C105.694 33.6442 105.485 34.3207 105.315 34.972C105.137 35.6232 105.002 36.2334 104.907 36.8024C104.812 37.3715 104.764 37.871 104.764 38.3009C104.764 38.4084 104.771 38.5254 104.783 38.6518C104.796 38.7783 104.821 38.8953 104.859 39.0027C104.897 39.1102 104.951 39.1987 105.021 39.2683C105.09 39.3442 105.182 39.3821 105.296 39.3821C105.504 39.3821 105.684 39.2493 105.836 38.9838C105.988 38.7245 106.114 38.3705 106.216 37.9215C106.323 37.4789 106.412 36.9668 106.481 36.3851C106.551 35.8097 106.604 35.2059 106.642 34.5736C106.687 33.9413 106.718 33.3027 106.737 32.6578C106.756 32.0192 106.772 31.4154 106.785 30.8463ZM114.543 23.0029C114.543 23.2432 114.457 23.4487 114.287 23.6194C114.122 23.7838 113.92 23.866 113.68 23.866C113.439 23.866 113.234 23.7838 113.063 23.6194C112.899 23.4487 112.817 23.2432 112.817 23.0029C112.817 22.8828 112.839 22.7721 112.883 22.671C112.927 22.5635 112.987 22.4718 113.063 22.3959C113.145 22.3137 113.237 22.2505 113.338 22.2062C113.446 22.162 113.559 22.1398 113.68 22.1398C113.8 22.1398 113.91 22.162 114.012 22.2062C114.119 22.2505 114.211 22.3137 114.287 22.3959C114.369 22.4718 114.432 22.5635 114.476 22.671C114.521 22.7721 114.543 22.8828 114.543 23.0029ZM113.006 28.5606C113.006 27.6502 113.063 26.7428 113.177 25.8387C113.19 25.7502 113.228 25.6743 113.291 25.6111C113.36 25.5415 113.449 25.5067 113.556 25.5067C113.651 25.5067 113.73 25.5447 113.793 25.6205C113.857 25.6901 113.888 25.7723 113.888 25.8671C113.888 25.9051 113.879 26.0189 113.86 26.2086C113.847 26.3982 113.828 26.6259 113.803 26.8914C113.784 27.1507 113.765 27.4289 113.746 27.726C113.733 28.0169 113.727 28.2856 113.727 28.5322C113.727 28.8673 113.759 29.1392 113.822 29.3478C113.891 29.5502 113.977 29.7082 114.078 29.822C114.185 29.9359 114.296 30.0117 114.41 30.0497C114.53 30.0876 114.644 30.1066 114.751 30.1066C114.928 30.1066 115.112 30.0433 115.301 29.9169C115.491 29.7904 115.684 29.6134 115.88 29.3858C116.082 29.1581 116.285 28.8863 116.487 28.5701C116.689 28.2477 116.888 27.8904 117.084 27.4984C117.116 27.4352 117.16 27.3878 117.217 27.3562C117.274 27.3182 117.337 27.2992 117.407 27.2992C117.508 27.2992 117.59 27.3372 117.653 27.4131C117.723 27.4889 117.758 27.5711 117.758 27.6596C117.758 27.7229 117.745 27.7766 117.72 27.8209C117.644 27.9663 117.549 28.1433 117.435 28.352C117.322 28.5606 117.192 28.7756 117.046 28.9969C116.901 29.2182 116.74 29.4395 116.563 29.6608C116.392 29.8758 116.209 30.0718 116.013 30.2488C115.817 30.4195 115.611 30.5586 115.396 30.6661C115.181 30.7736 114.963 30.8274 114.742 30.8274C114.457 30.8274 114.208 30.7673 113.993 30.6472C113.778 30.527 113.594 30.3658 113.442 30.1635C113.297 29.9611 113.186 29.724 113.111 29.4522C113.041 29.174 113.006 28.8768 113.006 28.5606ZM114.012 23.0029C114.012 22.9144 113.977 22.8385 113.907 22.7753C113.844 22.7057 113.768 22.671 113.68 22.671C113.591 22.671 113.515 22.7057 113.452 22.7753C113.389 22.8385 113.357 22.9144 113.357 23.0029C113.357 23.0914 113.389 23.1673 113.452 23.2305C113.515 23.2938 113.591 23.3254 113.68 23.3254C113.768 23.3254 113.844 23.2938 113.907 23.2305C113.977 23.1673 114.012 23.0914 114.012 23.0029ZM124.406 27.8019C124.381 27.8525 124.327 27.96 124.245 28.1244C124.169 28.2824 124.068 28.4658 123.941 28.6745C123.821 28.8831 123.679 29.1012 123.515 29.3289C123.35 29.5565 123.167 29.7651 122.965 29.9548C122.762 30.1445 122.544 30.3026 122.31 30.429C122.076 30.5492 121.83 30.6092 121.57 30.6092C121.204 30.6092 120.894 30.4923 120.641 30.2583C120.394 30.0244 120.214 29.7304 120.1 29.3763C119.885 29.7367 119.629 30.0244 119.332 30.2393C119.035 30.448 118.738 30.5523 118.441 30.5523C118.207 30.5523 117.995 30.5112 117.805 30.429C117.616 30.3405 117.454 30.2204 117.322 30.0686C117.189 29.9106 117.084 29.7272 117.009 29.5185C116.939 29.3099 116.904 29.0823 116.904 28.8357C116.904 28.3425 116.986 27.9094 117.151 27.5364C117.322 27.157 117.536 26.8408 117.796 26.5879C118.055 26.335 118.339 26.1453 118.649 26.0189C118.965 25.8924 119.269 25.8292 119.56 25.8292C119.756 25.8292 119.936 25.8576 120.1 25.9146C120.265 25.9651 120.404 26.022 120.518 26.0853C120.638 26.1485 120.73 26.2086 120.793 26.2655C120.856 26.3161 120.891 26.3445 120.897 26.3508C120.967 26.433 121.001 26.5184 121.001 26.6069C121.001 26.7017 120.967 26.7871 120.897 26.863C120.828 26.9325 120.745 26.9673 120.65 26.9673C120.549 26.9673 120.464 26.9325 120.394 26.863C120.382 26.8503 120.353 26.8282 120.309 26.7966C120.265 26.7586 120.205 26.7207 120.129 26.6828C120.053 26.6448 119.961 26.6132 119.854 26.5879C119.753 26.5563 119.636 26.5405 119.503 26.5405C119.307 26.5405 119.098 26.5848 118.877 26.6733C118.656 26.7618 118.453 26.9009 118.27 27.0906C118.087 27.274 117.932 27.5079 117.805 27.7924C117.685 28.0706 117.625 28.4026 117.625 28.7883C117.625 28.9084 117.638 29.0317 117.663 29.1581C117.688 29.2783 117.733 29.3889 117.796 29.4901C117.859 29.5913 117.944 29.6735 118.052 29.7367C118.159 29.7999 118.292 29.8315 118.45 29.8315C118.564 29.8315 118.694 29.7936 118.839 29.7177C118.991 29.6418 119.133 29.5249 119.266 29.3668C119.405 29.2087 119.528 29.0096 119.636 28.7693C119.749 28.529 119.829 28.2445 119.873 27.9157C119.885 27.8272 119.927 27.7545 119.996 27.6976C120.066 27.6344 120.148 27.6027 120.243 27.6027C120.331 27.6027 120.407 27.6375 120.47 27.7071C120.54 27.7766 120.578 27.8557 120.584 27.9442C120.59 28.0643 120.603 28.235 120.622 28.4563C120.641 28.6713 120.682 28.8863 120.745 29.1012C120.815 29.3162 120.916 29.5027 121.049 29.6608C121.182 29.8189 121.365 29.8979 121.599 29.8979C121.751 29.8979 121.899 29.8568 122.045 29.7746C122.196 29.6924 122.342 29.5849 122.481 29.4522C122.626 29.3131 122.762 29.1581 122.889 28.9874C123.022 28.8104 123.142 28.6334 123.249 28.4563C123.357 28.2793 123.451 28.1086 123.534 27.9442C123.616 27.7798 123.685 27.6375 123.742 27.5174C123.774 27.4478 123.818 27.3941 123.875 27.3562C123.938 27.3182 124.005 27.2992 124.074 27.2992C124.182 27.2992 124.267 27.3403 124.33 27.4225C124.4 27.4984 124.435 27.5806 124.435 27.6691C124.435 27.7134 124.425 27.7576 124.406 27.8019ZM124.805 26.9388C124.767 27.04 124.719 27.1538 124.662 27.2803C124.612 27.4067 124.552 27.5395 124.482 27.6786C124.425 27.7861 124.365 27.8715 124.302 27.9347C124.245 27.9916 124.169 28.02 124.074 28.02C123.967 28.02 123.881 27.9884 123.818 27.9252C123.755 27.8557 123.723 27.7766 123.723 27.6881C123.723 27.6565 123.727 27.6312 123.733 27.6122C123.739 27.5869 123.755 27.549 123.78 27.4984C123.945 27.1823 124.065 26.9072 124.141 26.6733C124.223 26.433 124.289 26.1833 124.34 25.924C124.296 25.7786 124.264 25.6553 124.245 25.5542C124.226 25.453 124.217 25.3487 124.217 25.2412C124.217 25.0325 124.261 24.865 124.349 24.7385C124.438 24.6057 124.561 24.5393 124.719 24.5393C124.865 24.5393 124.978 24.6026 125.061 24.729C125.149 24.8555 125.193 25.0104 125.193 25.1938C125.193 25.2949 125.184 25.3961 125.165 25.4973C125.146 25.5984 125.121 25.7249 125.089 25.8766C125.234 26.237 125.38 26.5563 125.525 26.8345C125.671 27.1127 125.8 27.3688 125.914 27.6027C126.028 27.8304 126.12 28.0453 126.189 28.2477C126.265 28.45 126.303 28.6523 126.303 28.8547C126.303 29.1202 126.249 29.3731 126.142 29.6134C126.034 29.8537 125.857 30.056 125.611 30.2204C125.642 30.2267 125.674 30.2299 125.706 30.2299C125.737 30.2299 125.769 30.2299 125.8 30.2299C126.161 30.2299 126.493 30.1477 126.796 29.9833C127.1 29.8189 127.372 29.6071 127.612 29.3478C127.858 29.0823 128.077 28.7914 128.266 28.4753C128.456 28.1528 128.62 27.8335 128.759 27.5174C128.823 27.372 128.911 27.2992 129.025 27.2992C129.133 27.2992 129.215 27.3372 129.272 27.4131C129.335 27.4889 129.366 27.5711 129.366 27.6596C129.366 27.7102 129.357 27.7576 129.338 27.8019C129.268 27.9726 129.177 28.1686 129.063 28.3899C128.955 28.6049 128.823 28.8294 128.665 29.0633C128.513 29.2909 128.336 29.5154 128.133 29.7367C127.931 29.958 127.704 30.1571 127.451 30.3342C127.204 30.5049 126.932 30.6408 126.635 30.742C126.338 30.8495 126.012 30.9032 125.658 30.9032C125.234 30.9032 124.839 30.8274 124.473 30.6756C124.112 30.5302 123.818 30.2868 123.591 29.9453C123.553 29.8884 123.534 29.8284 123.534 29.7651C123.534 29.6703 123.568 29.5881 123.638 29.5185C123.714 29.4427 123.799 29.4047 123.894 29.4047C123.995 29.4047 124.081 29.4395 124.15 29.5091C124.156 29.5217 124.179 29.5438 124.217 29.5755C124.254 29.6007 124.299 29.6324 124.349 29.6703C124.406 29.7019 124.469 29.7304 124.539 29.7557C124.615 29.7809 124.691 29.7936 124.767 29.7936C124.918 29.7936 125.045 29.762 125.146 29.6987C125.253 29.6355 125.339 29.5596 125.402 29.4711C125.465 29.3763 125.51 29.2783 125.535 29.1771C125.566 29.0696 125.582 28.9779 125.582 28.9021C125.582 28.744 125.557 28.5859 125.506 28.4279C125.456 28.2698 125.389 28.1117 125.307 27.9537C125.231 27.7956 125.146 27.6344 125.051 27.47C124.963 27.2992 124.88 27.1222 124.805 26.9388Z" fill="white"/>
<path d="M8.22299 19.4683C3.68156 19.4683 0 15.7867 0 11.2453L0 3.0223H8.22298C12.7644 3.0223 16.446 6.70385 16.446 11.2453V19.4683H8.22299Z" fill="white"/>
<path d="M26.9277 19.4674C30.8606 19.4674 34.0488 16.2792 34.0488 12.3463V3.02225H24.7248C20.7919 3.02225 17.6037 6.21047 17.6037 10.1433V19.4674H26.9277Z" fill="white"/>
<path d="M5.27734 25.9904C5.27734 22.9116 7.77319 20.4158 10.852 20.4158H16.4266V25.9904C16.4266 29.0692 13.9308 31.565 10.852 31.565H5.27734V25.9904Z" fill="white"/>
<path d="M23.2086 20.4158C26.2874 20.4158 28.7832 22.9116 28.7832 25.9904L28.7832 31.5654H23.2082C20.1294 31.5654 17.6336 29.0695 17.6336 25.9907V20.4158L23.2086 20.4158Z" fill="white"/>
</svg>
